<svg width="196" height="32" viewBox="0 0 196 32" fill="none" xmlns="http://www.w3.org/2000/svg">
<path d="M21.7167 14.0084V17.7053C21.7167 19.3433 21.7156 20.502 21.6405 21.4073C21.5666 22.2987 21.4265 22.8418 21.205 23.2676C20.774 24.0973 20.0976 24.774 19.2676 25.205C18.8418 25.4265 18.2987 25.5666 17.4073 25.6405C16.502 25.7156 15.3433 25.7167 13.7055 25.7167H10.2945C8.65654 25.7167 7.4979 25.7156 6.59269 25.6405C5.70116 25.5666 5.15823 25.4265 4.73225 25.205C3.90246 24.774 3.22587 24.0973 2.79481 23.2676C2.57353 22.8418 2.43343 22.2987 2.35936 21.4073C2.28422 20.502 2.28327 19.3433 2.28327 17.7053V14.2945C2.28327 12.6565 2.28422 11.4979 2.35936 10.5927C2.43343 9.70114 2.57353 9.1582 2.79481 8.73223C3.22587 7.90243 3.90246 7.22584 4.73225 6.79479C5.15823 6.57351 5.70116 6.4334 6.59269 6.35937C7.4979 6.28419 8.65652 6.28328 10.2945 6.28328H13.9914C14.0244 5.48296 14.1842 4.71535 14.4511 4H10.2437C8.66796 3.99997 7.4145 3.99997 6.40372 4.08391C5.36846 4.16988 4.48592 4.3498 3.67972 4.76858C2.43288 5.41626 1.41629 6.43289 0.768607 7.67973C0.349826 8.48589 0.169905 9.36843 0.0839393 10.4037C4.9334e-07 11.4145 0 12.6679 0 14.2437V17.7561C0 19.3318 4.9334e-07 20.5854 0.0839393 21.5963C0.169905 22.6315 0.349826 23.5139 0.768607 24.3202C1.41629 25.5669 2.43288 26.5835 3.67972 27.2314C4.48592 27.6501 5.36846 27.8299 6.40372 27.9161C7.4145 28 8.6679 28 10.2436 28H13.7562C15.3318 28 16.5854 28 17.5963 27.9161C18.6315 27.8299 19.5139 27.6501 20.3202 27.2314C21.5669 26.5835 22.5835 25.5669 23.2314 24.3202C23.6501 23.5139 23.8299 22.6315 23.9161 21.5963C24 20.5854 24 19.3318 24 17.7564V13.5487C23.2845 13.8157 22.517 13.9754 21.7167 14.0084Z" fill="white"/>
<path d="M35.7216 25V7.54545H38.8835V15.5653H39.0966L45.9062 7.54545H49.767L43.017 15.3778L49.8267 25H46.0256L40.8182 17.517L38.8835 19.8011V25H35.7216ZM56.4327 25.2557C55.1543 25.2557 54.0463 24.9744 53.1088 24.4119C52.1713 23.8494 51.4441 23.0625 50.927 22.0511C50.4157 21.0398 50.16 19.858 50.16 18.5057C50.16 17.1534 50.4157 15.9687 50.927 14.9517C51.4441 13.9347 52.1713 13.1449 53.1088 12.5824C54.0463 12.0199 55.1543 11.7386 56.4327 11.7386C57.7111 11.7386 58.8191 12.0199 59.7566 12.5824C60.6941 13.1449 61.4185 13.9347 61.9299 14.9517C62.4469 15.9687 62.7054 17.1534 62.7054 18.5057C62.7054 19.858 62.4469 21.0398 61.9299 22.0511C61.4185 23.0625 60.6941 23.8494 59.7566 24.4119C58.8191 24.9744 57.7111 25.2557 56.4327 25.2557ZM56.4497 22.7841C57.1429 22.7841 57.7225 22.5937 58.1884 22.2131C58.6543 21.8267 59.0009 21.3097 59.2282 20.6619C59.4611 20.0142 59.5776 19.2926 59.5776 18.4972C59.5776 17.696 59.4611 16.9716 59.2282 16.3239C59.0009 15.6705 58.6543 15.1506 58.1884 14.7642C57.7225 14.3778 57.1429 14.1847 56.4497 14.1847C55.7395 14.1847 55.1486 14.3778 54.677 14.7642C54.2111 15.1506 53.8617 15.6705 53.6287 16.3239C53.4015 16.9716 53.2878 17.696 53.2878 18.4972C53.2878 19.2926 53.4015 20.0142 53.6287 20.6619C53.8617 21.3097 54.2111 21.8267 54.677 22.2131C55.1486 22.5937 55.7395 22.7841 56.4497 22.7841ZM68.2653 17.3295V25H65.18V11.9091H68.1289V14.1335H68.2823C68.5834 13.4006 69.0636 12.8182 69.7227 12.3864C70.3874 11.9545 71.2084 11.7386 72.1857 11.7386C73.0891 11.7386 73.8761 11.9318 74.5465 12.3182C75.2227 12.7045 75.7454 13.2642 76.1147 13.9972C76.4897 14.7301 76.6744 15.6193 76.6687 16.6648V25H73.5834V17.142C73.5834 16.267 73.3562 15.5824 72.9016 15.0881C72.4528 14.5937 71.8306 14.3466 71.0352 14.3466C70.4954 14.3466 70.0153 14.4659 69.5948 14.7045C69.18 14.9375 68.8533 15.2756 68.6147 15.7188C68.3817 16.1619 68.2653 16.6989 68.2653 17.3295ZM86.198 11.9091V14.2955H78.6724V11.9091H86.198ZM80.5304 8.77273H83.6156V21.0625C83.6156 21.4773 83.6781 21.7955 83.8031 22.017C83.9338 22.233 84.1042 22.3807 84.3144 22.4602C84.5247 22.5398 84.7576 22.5795 85.0133 22.5795C85.2065 22.5795 85.3826 22.5653 85.5417 22.5369C85.7065 22.5085 85.8315 22.483 85.9167 22.4602L86.4366 24.8722C86.2718 24.929 86.036 24.9915 85.7292 25.0597C85.4281 25.1278 85.0588 25.1676 84.6213 25.179C83.8485 25.2017 83.1525 25.0852 82.5332 24.8295C81.9139 24.5682 81.4224 24.1648 81.0588 23.6193C80.7008 23.0739 80.5247 22.392 80.5304 21.5739V8.77273ZM94.2891 25.2557C92.9766 25.2557 91.843 24.983 90.8885 24.4375C89.9396 23.8864 89.2095 23.108 88.6981 22.1023C88.1868 21.0909 87.9311 19.9006 87.9311 18.5312C87.9311 17.1847 88.1868 16.0028 88.6981 14.9858C89.2152 13.9631 89.9368 13.1676 90.8629 12.5994C91.7891 12.0256 92.8771 11.7386 94.1271 11.7386C94.9339 11.7386 95.6953 11.8693 96.4112 12.1307C97.1328 12.3864 97.7692 12.7841 98.3203 13.3239C98.8771 13.8636 99.3146 14.5511 99.6328 15.3864C99.951 16.2159 100.11 17.2045 100.11 18.3523V19.2983H89.38V17.2188H97.1527C97.147 16.6278 97.0192 16.1023 96.7692 15.642C96.5192 15.1761 96.1697 14.8097 95.7209 14.5426C95.2777 14.2756 94.7606 14.142 94.1697 14.142C93.5391 14.142 92.9851 14.2955 92.5078 14.6023C92.0305 14.9034 91.6584 15.3011 91.3913 15.7955C91.13 16.2841 90.9964 16.821 90.9908 17.4062V19.2216C90.9908 19.983 91.13 20.6364 91.4084 21.1818C91.6868 21.7216 92.076 22.1364 92.576 22.4261C93.076 22.7102 93.6612 22.8523 94.3317 22.8523C94.7805 22.8523 95.1868 22.7898 95.5504 22.6648C95.9141 22.5341 96.2294 22.3438 96.4964 22.0938C96.7635 21.8438 96.9652 21.5341 97.1016 21.1648L99.9822 21.4886C99.8004 22.25 99.4538 22.9148 98.9425 23.483C98.4368 24.0455 97.7891 24.483 96.9993 24.7955C96.2095 25.1023 95.3061 25.2557 94.2891 25.2557ZM105.661 17.3295V25H102.576V11.9091H105.525V14.1335H105.678C105.98 13.4006 106.46 12.8182 107.119 12.3864C107.784 11.9545 108.605 11.7386 109.582 11.7386C110.485 11.7386 111.272 11.9318 111.943 12.3182C112.619 12.7045 113.142 13.2642 113.511 13.9972C113.886 14.7301 114.07 15.6193 114.065 16.6648V25H110.98V17.142C110.98 16.267 110.752 15.5824 110.298 15.0881C109.849 14.5937 109.227 14.3466 108.431 14.3466C107.892 14.3466 107.411 14.4659 106.991 14.7045C106.576 14.9375 106.249 15.2756 106.011 15.7188C105.778 16.1619 105.661 16.6989 105.661 17.3295ZM117.194 25V7.54545H120.355V15.5653H120.569L127.378 7.54545H131.239L124.489 15.3778L131.299 25H127.498L122.29 17.517L120.355 19.8011V25H117.194ZM133.976 25V11.9091H137.061V25H133.976ZM135.527 10.0511C135.038 10.0511 134.618 9.8892 134.265 9.56534C133.913 9.23579 133.737 8.84091 133.737 8.38068C133.737 7.91477 133.913 7.51989 134.265 7.19602C134.618 6.86648 135.038 6.7017 135.527 6.7017C136.021 6.7017 136.442 6.86648 136.788 7.19602C137.14 7.51989 137.317 7.91477 137.317 8.38068C137.317 8.84091 137.14 9.23579 136.788 9.56534C136.442 9.8892 136.021 10.0511 135.527 10.0511ZM143.175 7.54545V25H140.089V7.54545H143.175ZM149.97 25.2642C149.141 25.2642 148.394 25.1165 147.729 24.821C147.07 24.5199 146.547 24.0767 146.161 23.4915C145.78 22.9062 145.59 22.1847 145.59 21.3267C145.59 20.5881 145.726 19.9773 145.999 19.4943C146.271 19.0114 146.644 18.625 147.115 18.3352C147.587 18.0455 148.118 17.8267 148.709 17.679C149.306 17.5256 149.922 17.4148 150.558 17.3466C151.325 17.267 151.948 17.196 152.425 17.1335C152.902 17.0653 153.249 16.9631 153.465 16.8267C153.686 16.6847 153.797 16.4659 153.797 16.1705V16.1193C153.797 15.4773 153.607 14.9801 153.226 14.6278C152.845 14.2756 152.297 14.0994 151.581 14.0994C150.825 14.0994 150.226 14.2642 149.783 14.5938C149.345 14.9233 149.05 15.3125 148.896 15.7614L146.016 15.3523C146.243 14.5568 146.618 13.892 147.141 13.358C147.664 12.8182 148.303 12.4148 149.058 12.1477C149.814 11.875 150.649 11.7386 151.564 11.7386C152.195 11.7386 152.823 11.8125 153.448 11.9602C154.073 12.108 154.644 12.3523 155.161 12.6932C155.678 13.0284 156.092 13.4858 156.405 14.0653C156.723 14.6449 156.882 15.3693 156.882 16.2386V25H153.916V23.2017H153.814C153.627 23.5653 153.362 23.9062 153.021 24.2244C152.686 24.5369 152.263 24.7898 151.752 24.983C151.246 25.1705 150.652 25.2642 149.97 25.2642ZM150.771 22.9972C151.391 22.9972 151.928 22.875 152.382 22.6307C152.837 22.3807 153.186 22.0511 153.431 21.642C153.681 21.233 153.806 20.7869 153.806 20.304V18.7614C153.709 18.8409 153.544 18.9148 153.311 18.983C153.084 19.0511 152.828 19.1108 152.544 19.1619C152.26 19.2131 151.979 19.2585 151.7 19.2983C151.422 19.3381 151.181 19.3722 150.976 19.4006C150.516 19.4631 150.104 19.5653 149.74 19.7074C149.377 19.8494 149.09 20.0483 148.879 20.304C148.669 20.554 148.564 20.8778 148.564 21.2756C148.564 21.8438 148.771 22.2727 149.186 22.5625C149.601 22.8523 150.129 22.9972 150.771 22.9972ZM166.377 11.9091V14.2955H158.852V11.9091H166.377ZM160.71 8.77273H163.795V21.0625C163.795 21.4773 163.858 21.7955 163.983 22.017C164.113 22.233 164.284 22.3807 164.494 22.4602C164.704 22.5398 164.937 22.5795 165.193 22.5795C165.386 22.5795 165.562 22.5653 165.721 22.5369C165.886 22.5085 166.011 22.483 166.096 22.4602L166.616 24.8722C166.451 24.929 166.216 24.9915 165.909 25.0597C165.608 25.1278 165.238 25.1676 164.801 25.179C164.028 25.2017 163.332 25.0852 162.713 24.8295C162.093 24.5682 161.602 24.1648 161.238 23.6193C160.88 23.0739 160.704 22.392 160.71 21.5739V8.77273ZM170.714 25.1875C170.197 25.1875 169.754 25.0057 169.385 24.642C169.015 24.2784 168.834 23.8352 168.839 23.3125C168.834 22.8011 169.015 22.3636 169.385 22C169.754 21.6364 170.197 21.4545 170.714 21.4545C171.214 21.4545 171.649 21.6364 172.018 22C172.393 22.3636 172.584 22.8011 172.589 23.3125C172.584 23.6591 172.493 23.9744 172.317 24.2585C172.146 24.5426 171.919 24.7699 171.635 24.9403C171.356 25.1051 171.05 25.1875 170.714 25.1875ZM175.631 25V11.9091H178.716V25H175.631ZM177.182 10.0511C176.693 10.0511 176.273 9.8892 175.92 9.56534C175.568 9.23579 175.392 8.84091 175.392 8.38068C175.392 7.91477 175.568 7.51989 175.92 7.19602C176.273 6.86648 176.693 6.7017 177.182 6.7017C177.676 6.7017 178.097 6.86648 178.443 7.19602C178.795 7.51989 178.972 7.91477 178.972 8.38068C178.972 8.84091 178.795 9.23579 178.443 9.56534C178.097 9.8892 177.676 10.0511 177.182 10.0511ZM186.602 25.2301C185.574 25.2301 184.654 24.9659 183.841 24.4375C183.029 23.9091 182.387 23.142 181.915 22.1364C181.443 21.1307 181.208 19.9091 181.208 18.4716C181.208 17.017 181.446 15.7898 181.923 14.7898C182.406 13.7841 183.057 13.0256 183.875 12.5142C184.693 11.9972 185.605 11.7386 186.611 11.7386C187.378 11.7386 188.009 11.8693 188.503 12.1307C188.997 12.3864 189.389 12.696 189.679 13.0597C189.969 13.4176 190.193 13.7557 190.352 14.0739H190.48V7.54545H193.574V25H190.54V22.9375H190.352C190.193 23.2557 189.963 23.5937 189.662 23.9517C189.361 24.304 188.963 24.6051 188.469 24.8551C187.975 25.1051 187.352 25.2301 186.602 25.2301ZM187.463 22.6989C188.117 22.6989 188.673 22.5227 189.134 22.1705C189.594 21.8125 189.943 21.3153 190.182 20.679C190.421 20.0426 190.54 19.3011 190.54 18.4545C190.54 17.608 190.421 16.8722 190.182 16.2472C189.949 15.6222 189.602 15.1364 189.142 14.7898C188.688 14.4432 188.128 14.2699 187.463 14.2699C186.776 14.2699 186.202 14.4489 185.742 14.8068C185.281 15.1648 184.935 15.6591 184.702 16.2898C184.469 16.9205 184.352 17.642 184.352 18.4545C184.352 19.2727 184.469 20.0028 184.702 20.6449C184.941 21.2812 185.29 21.7841 185.75 22.1534C186.216 22.517 186.787 22.6989 187.463 22.6989Z" fill="white"/>
<path d="M15 7C15 3.6863 17.6863 1 21 1C24.3137 1 27 3.6863 27 7C27 10.3137 24.3137 13 21 13C17.6863 13 15 10.3137 15 7Z" fill="#38BDF8"/>
</svg>
