<svg width="27" height="28" viewBox="0 0 27 28" fill="none" xmlns="http://www.w3.org/2000/svg">
<path d="M21.7167 13.5084V17.2053C21.7167 18.8433 21.7156 20.002 21.6405 20.9073C21.5666 21.7987 21.4265 22.3418 21.205 22.7676C20.774 23.5973 20.0976 24.274 19.2676 24.705C18.8418 24.9265 18.2987 25.0666 17.4073 25.1405C16.502 25.2156 15.3433 25.2167 13.7055 25.2167H10.2945C8.65655 25.2167 7.4979 25.2156 6.59269 25.1405C5.70116 25.0666 5.15823 24.9265 4.73225 24.705C3.90246 24.274 3.22587 23.5973 2.79481 22.7676C2.57353 22.3418 2.43343 21.7987 2.35936 20.9073C2.28422 20.002 2.28327 18.8433 2.28327 17.2053V13.7945C2.28327 12.1565 2.28422 10.9979 2.35936 10.0927C2.43343 9.20114 2.57353 8.6582 2.79481 8.23223C3.22587 7.40243 3.90246 6.72584 4.73225 6.29479C5.15823 6.07351 5.70116 5.9334 6.59269 5.85937C7.4979 5.78419 8.65652 5.78328 10.2945 5.78328H13.9914C14.0244 4.98296 14.1842 4.21535 14.4511 3.5H10.2437C8.66796 3.49997 7.4145 3.49997 6.40372 3.58391C5.36846 3.66988 4.48592 3.8498 3.67972 4.26858C2.43288 4.91626 1.41629 5.93289 0.768607 7.17973C0.349826 7.98589 0.169905 8.86843 0.0839393 9.9037C4.9334e-07 10.9145 0 12.1679 0 13.7437V17.2561C0 18.8318 4.9334e-07 20.0854 0.0839393 21.0963C0.169905 22.1315 0.349826 23.0139 0.768607 23.8202C1.41629 25.0669 2.43288 26.0835 3.67972 26.7314C4.48592 27.1501 5.36846 27.3299 6.40372 27.4161C7.4145 27.5 8.6679 27.5 10.2436 27.5H13.7562C15.3318 27.5 16.5854 27.5 17.5963 27.4161C18.6315 27.3299 19.5139 27.1501 20.3202 26.7314C21.5669 26.0835 22.5835 25.0669 23.2314 23.8202C23.6501 23.0139 23.8299 22.1315 23.9161 21.0963C24 20.0854 24 18.8318 24 17.2564V13.0487C23.2845 13.3157 22.517 13.4754 21.7167 13.5084Z" fill="#262626"/>
<path d="M15 6.5C15 3.1863 17.6863 0.5 21 0.5C24.3137 0.5 27 3.1863 27 6.5C27 9.8137 24.3137 12.5 21 12.5C17.6863 12.5 15 9.8137 15 6.5Z" fill="#38BDF8"/>
</svg>
