<svg width="196" height="33" viewBox="0 0 196 33" fill="none" xmlns="http://www.w3.org/2000/svg">
<path d="M21.7167 14.5084V18.2053C21.7167 19.8433 21.7156 21.002 21.6405 21.9073C21.5666 22.7987 21.4265 23.3418 21.205 23.7676C20.774 24.5973 20.0976 25.274 19.2676 25.705C18.8418 25.9265 18.2987 26.0666 17.4073 26.1405C16.502 26.2156 15.3433 26.2167 13.7055 26.2167H10.2945C8.65654 26.2167 7.4979 26.2156 6.59269 26.1405C5.70116 26.0666 5.15823 25.9265 4.73225 25.705C3.90246 25.274 3.22587 24.5973 2.79481 23.7676C2.57353 23.3418 2.43343 22.7987 2.35936 21.9073C2.28422 21.002 2.28327 19.8433 2.28327 18.2053V14.7945C2.28327 13.1565 2.28422 11.9979 2.35936 11.0927C2.43343 10.2011 2.57353 9.6582 2.79481 9.23223C3.22587 8.40243 3.90246 7.72584 4.73225 7.29479C5.15823 7.07351 5.70116 6.9334 6.59269 6.85937C7.4979 6.78419 8.65652 6.78328 10.2945 6.78328H13.9914C14.0244 5.98296 14.1842 5.21535 14.4511 4.5H10.2437C8.66796 4.49997 7.4145 4.49997 6.40372 4.58391C5.36846 4.66988 4.48592 4.8498 3.67972 5.26858C2.43288 5.91626 1.41629 6.93289 0.768607 8.17973C0.349826 8.98589 0.169905 9.86843 0.0839393 10.9037C4.9334e-07 11.9145 0 13.1679 0 14.7437V18.2561C0 19.8318 4.9334e-07 21.0854 0.0839393 22.0963C0.169905 23.1315 0.349826 24.0139 0.768607 24.8202C1.41629 26.0669 2.43288 27.0835 3.67972 27.7314C4.48592 28.1501 5.36846 28.3299 6.40372 28.4161C7.4145 28.5 8.6679 28.5 10.2436 28.5H13.7562C15.3318 28.5 16.5854 28.5 17.5963 28.4161C18.6315 28.3299 19.5139 28.1501 20.3202 27.7314C21.5669 27.0835 22.5835 26.0669 23.2314 24.8202C23.6501 24.0139 23.8299 23.1315 23.9161 22.0963C24 21.0854 24 19.8318 24 18.2564V14.0487C23.2845 14.3157 22.517 14.4754 21.7167 14.5084Z" fill="#262626"/>
<path d="M35.7216 25.5V8.04545H38.8835V16.0653H39.0966L45.9062 8.04545H49.767L43.017 15.8778L49.8267 25.5H46.0256L40.8182 18.017L38.8835 20.3011V25.5H35.7216ZM56.4327 25.7557C55.1543 25.7557 54.0463 25.4744 53.1088 24.9119C52.1713 24.3494 51.4441 23.5625 50.927 22.5511C50.4157 21.5398 50.16 20.358 50.16 19.0057C50.16 17.6534 50.4157 16.4687 50.927 15.4517C51.4441 14.4347 52.1713 13.6449 53.1088 13.0824C54.0463 12.5199 55.1543 12.2386 56.4327 12.2386C57.7111 12.2386 58.8191 12.5199 59.7566 13.0824C60.6941 13.6449 61.4185 14.4347 61.9299 15.4517C62.4469 16.4687 62.7054 17.6534 62.7054 19.0057C62.7054 20.358 62.4469 21.5398 61.9299 22.5511C61.4185 23.5625 60.6941 24.3494 59.7566 24.9119C58.8191 25.4744 57.7111 25.7557 56.4327 25.7557ZM56.4497 23.2841C57.1429 23.2841 57.7225 23.0937 58.1884 22.7131C58.6543 22.3267 59.0009 21.8097 59.2282 21.1619C59.4611 20.5142 59.5776 19.7926 59.5776 18.9972C59.5776 18.196 59.4611 17.4716 59.2282 16.8239C59.0009 16.1705 58.6543 15.6506 58.1884 15.2642C57.7225 14.8778 57.1429 14.6847 56.4497 14.6847C55.7395 14.6847 55.1486 14.8778 54.677 15.2642C54.2111 15.6506 53.8617 16.1705 53.6287 16.8239C53.4015 17.4716 53.2878 18.196 53.2878 18.9972C53.2878 19.7926 53.4015 20.5142 53.6287 21.1619C53.8617 21.8097 54.2111 22.3267 54.677 22.7131C55.1486 23.0937 55.7395 23.2841 56.4497 23.2841ZM68.2653 17.8295V25.5H65.18V12.4091H68.1289V14.6335H68.2823C68.5834 13.9006 69.0636 13.3182 69.7227 12.8864C70.3874 12.4545 71.2084 12.2386 72.1857 12.2386C73.0891 12.2386 73.8761 12.4318 74.5465 12.8182C75.2227 13.2045 75.7454 13.7642 76.1147 14.4972C76.4897 15.2301 76.6744 16.1193 76.6687 17.1648V25.5H73.5834V17.642C73.5834 16.767 73.3562 16.0824 72.9016 15.5881C72.4528 15.0937 71.8306 14.8466 71.0352 14.8466C70.4954 14.8466 70.0153 14.9659 69.5948 15.2045C69.18 15.4375 68.8533 15.7756 68.6147 16.2188C68.3817 16.6619 68.2653 17.1989 68.2653 17.8295ZM86.198 12.4091V14.7955H78.6724V12.4091H86.198ZM80.5304 9.27273H83.6156V21.5625C83.6156 21.9773 83.6781 22.2955 83.8031 22.517C83.9338 22.733 84.1042 22.8807 84.3144 22.9602C84.5247 23.0398 84.7576 23.0795 85.0133 23.0795C85.2065 23.0795 85.3826 23.0653 85.5417 23.0369C85.7065 23.0085 85.8315 22.983 85.9167 22.9602L86.4366 25.3722C86.2718 25.429 86.036 25.4915 85.7292 25.5597C85.4281 25.6278 85.0588 25.6676 84.6213 25.679C83.8485 25.7017 83.1525 25.5852 82.5332 25.3295C81.9139 25.0682 81.4224 24.6648 81.0588 24.1193C80.7008 23.5739 80.5247 22.892 80.5304 22.0739V9.27273ZM94.2891 25.7557C92.9766 25.7557 91.843 25.483 90.8885 24.9375C89.9396 24.3864 89.2095 23.608 88.6981 22.6023C88.1868 21.5909 87.9311 20.4006 87.9311 19.0312C87.9311 17.6847 88.1868 16.5028 88.6981 15.4858C89.2152 14.4631 89.9368 13.6676 90.8629 13.0994C91.7891 12.5256 92.8771 12.2386 94.1271 12.2386C94.9339 12.2386 95.6953 12.3693 96.4112 12.6307C97.1328 12.8864 97.7692 13.2841 98.3203 13.8239C98.8771 14.3636 99.3146 15.0511 99.6328 15.8864C99.951 16.7159 100.11 17.7045 100.11 18.8523V19.7983H89.38V17.7188H97.1527C97.147 17.1278 97.0192 16.6023 96.7692 16.142C96.5192 15.6761 96.1697 15.3097 95.7209 15.0426C95.2777 14.7756 94.7606 14.642 94.1697 14.642C93.5391 14.642 92.9851 14.7955 92.5078 15.1023C92.0305 15.4034 91.6584 15.8011 91.3913 16.2955C91.13 16.7841 90.9964 17.321 90.9908 17.9062V19.7216C90.9908 20.483 91.13 21.1364 91.4084 21.6818C91.6868 22.2216 92.076 22.6364 92.576 22.9261C93.076 23.2102 93.6612 23.3523 94.3317 23.3523C94.7805 23.3523 95.1868 23.2898 95.5504 23.1648C95.9141 23.0341 96.2294 22.8438 96.4964 22.5938C96.7635 22.3438 96.9652 22.0341 97.1016 21.6648L99.9822 21.9886C99.8004 22.75 99.4538 23.4148 98.9425 23.983C98.4368 24.5455 97.7891 24.983 96.9993 25.2955C96.2095 25.6023 95.3061 25.7557 94.2891 25.7557ZM105.661 17.8295V25.5H102.576V12.4091H105.525V14.6335H105.678C105.98 13.9006 106.46 13.3182 107.119 12.8864C107.784 12.4545 108.605 12.2386 109.582 12.2386C110.485 12.2386 111.272 12.4318 111.943 12.8182C112.619 13.2045 113.142 13.7642 113.511 14.4972C113.886 15.2301 114.07 16.1193 114.065 17.1648V25.5H110.98V17.642C110.98 16.767 110.752 16.0824 110.298 15.5881C109.849 15.0937 109.227 14.8466 108.431 14.8466C107.892 14.8466 107.411 14.9659 106.991 15.2045C106.576 15.4375 106.249 15.7756 106.011 16.2188C105.778 16.6619 105.661 17.1989 105.661 17.8295ZM117.194 25.5V8.04545H120.355V16.0653H120.569L127.378 8.04545H131.239L124.489 15.8778L131.299 25.5H127.498L122.29 18.017L120.355 20.3011V25.5H117.194ZM133.976 25.5V12.4091H137.061V25.5H133.976ZM135.527 10.5511C135.038 10.5511 134.618 10.3892 134.265 10.0653C133.913 9.73579 133.737 9.34091 133.737 8.88068C133.737 8.41477 133.913 8.01989 134.265 7.69602C134.618 7.36648 135.038 7.2017 135.527 7.2017C136.021 7.2017 136.442 7.36648 136.788 7.69602C137.14 8.01989 137.317 8.41477 137.317 8.88068C137.317 9.34091 137.14 9.73579 136.788 10.0653C136.442 10.3892 136.021 10.5511 135.527 10.5511ZM143.175 8.04545V25.5H140.089V8.04545H143.175ZM149.97 25.7642C149.141 25.7642 148.394 25.6165 147.729 25.321C147.07 25.0199 146.547 24.5767 146.161 23.9915C145.78 23.4062 145.59 22.6847 145.59 21.8267C145.59 21.0881 145.726 20.4773 145.999 19.9943C146.271 19.5114 146.644 19.125 147.115 18.8352C147.587 18.5455 148.118 18.3267 148.709 18.179C149.306 18.0256 149.922 17.9148 150.558 17.8466C151.325 17.767 151.948 17.696 152.425 17.6335C152.902 17.5653 153.249 17.4631 153.465 17.3267C153.686 17.1847 153.797 16.9659 153.797 16.6705V16.6193C153.797 15.9773 153.607 15.4801 153.226 15.1278C152.845 14.7756 152.297 14.5994 151.581 14.5994C150.825 14.5994 150.226 14.7642 149.783 15.0938C149.345 15.4233 149.05 15.8125 148.896 16.2614L146.016 15.8523C146.243 15.0568 146.618 14.392 147.141 13.858C147.664 13.3182 148.303 12.9148 149.058 12.6477C149.814 12.375 150.649 12.2386 151.564 12.2386C152.195 12.2386 152.823 12.3125 153.448 12.4602C154.073 12.608 154.644 12.8523 155.161 13.1932C155.678 13.5284 156.092 13.9858 156.405 14.5653C156.723 15.1449 156.882 15.8693 156.882 16.7386V25.5H153.916V23.7017H153.814C153.627 24.0653 153.362 24.4062 153.021 24.7244C152.686 25.0369 152.263 25.2898 151.752 25.483C151.246 25.6705 150.652 25.7642 149.97 25.7642ZM150.771 23.4972C151.391 23.4972 151.928 23.375 152.382 23.1307C152.837 22.8807 153.186 22.5511 153.431 22.142C153.681 21.733 153.806 21.2869 153.806 20.804V19.2614C153.709 19.3409 153.544 19.4148 153.311 19.483C153.084 19.5511 152.828 19.6108 152.544 19.6619C152.26 19.7131 151.979 19.7585 151.7 19.7983C151.422 19.8381 151.181 19.8722 150.976 19.9006C150.516 19.9631 150.104 20.0653 149.74 20.2074C149.377 20.3494 149.09 20.5483 148.879 20.804C148.669 21.054 148.564 21.3778 148.564 21.7756C148.564 22.3438 148.771 22.7727 149.186 23.0625C149.601 23.3523 150.129 23.4972 150.771 23.4972ZM166.377 12.4091V14.7955H158.852V12.4091H166.377ZM160.71 9.27273H163.795V21.5625C163.795 21.9773 163.858 22.2955 163.983 22.517C164.113 22.733 164.284 22.8807 164.494 22.9602C164.704 23.0398 164.937 23.0795 165.193 23.0795C165.386 23.0795 165.562 23.0653 165.721 23.0369C165.886 23.0085 166.011 22.983 166.096 22.9602L166.616 25.3722C166.451 25.429 166.216 25.4915 165.909 25.5597C165.608 25.6278 165.238 25.6676 164.801 25.679C164.028 25.7017 163.332 25.5852 162.713 25.3295C162.093 25.0682 161.602 24.6648 161.238 24.1193C160.88 23.5739 160.704 22.892 160.71 22.0739V9.27273ZM170.714 25.6875C170.197 25.6875 169.754 25.5057 169.385 25.142C169.015 24.7784 168.834 24.3352 168.839 23.8125C168.834 23.3011 169.015 22.8636 169.385 22.5C169.754 22.1364 170.197 21.9545 170.714 21.9545C171.214 21.9545 171.649 22.1364 172.018 22.5C172.393 22.8636 172.584 23.3011 172.589 23.8125C172.584 24.1591 172.493 24.4744 172.317 24.7585C172.146 25.0426 171.919 25.2699 171.635 25.4403C171.356 25.6051 171.05 25.6875 170.714 25.6875ZM175.631 25.5V12.4091H178.716V25.5H175.631ZM177.182 10.5511C176.693 10.5511 176.273 10.3892 175.92 10.0653C175.568 9.73579 175.392 9.34091 175.392 8.88068C175.392 8.41477 175.568 8.01989 175.92 7.69602C176.273 7.36648 176.693 7.2017 177.182 7.2017C177.676 7.2017 178.097 7.36648 178.443 7.69602C178.795 8.01989 178.972 8.41477 178.972 8.88068C178.972 9.34091 178.795 9.73579 178.443 10.0653C178.097 10.3892 177.676 10.5511 177.182 10.5511ZM186.602 25.7301C185.574 25.7301 184.654 25.4659 183.841 24.9375C183.029 24.4091 182.387 23.642 181.915 22.6364C181.443 21.6307 181.208 20.4091 181.208 18.9716C181.208 17.517 181.446 16.2898 181.923 15.2898C182.406 14.2841 183.057 13.5256 183.875 13.0142C184.693 12.4972 185.605 12.2386 186.611 12.2386C187.378 12.2386 188.009 12.3693 188.503 12.6307C188.997 12.8864 189.389 13.196 189.679 13.5597C189.969 13.9176 190.193 14.2557 190.352 14.5739H190.48V8.04545H193.574V25.5H190.54V23.4375H190.352C190.193 23.7557 189.963 24.0937 189.662 24.4517C189.361 24.804 188.963 25.1051 188.469 25.3551C187.975 25.6051 187.352 25.7301 186.602 25.7301ZM187.463 23.1989C188.117 23.1989 188.673 23.0227 189.134 22.6705C189.594 22.3125 189.943 21.8153 190.182 21.179C190.421 20.5426 190.54 19.8011 190.54 18.9545C190.54 18.108 190.421 17.3722 190.182 16.7472C189.949 16.1222 189.602 15.6364 189.142 15.2898C188.688 14.9432 188.128 14.7699 187.463 14.7699C186.776 14.7699 186.202 14.9489 185.742 15.3068C185.281 15.6648 184.935 16.1591 184.702 16.7898C184.469 17.4205 184.352 18.142 184.352 18.9545C184.352 19.7727 184.469 20.5028 184.702 21.1449C184.941 21.7812 185.29 22.2841 185.75 22.6534C186.216 23.017 186.787 23.1989 187.463 23.1989Z" fill="#262626"/>
<path d="M15 7.5C15 4.1863 17.6863 1.5 21 1.5C24.3137 1.5 27 4.1863 27 7.5C27 10.8137 24.3137 13.5 21 13.5C17.6863 13.5 15 10.8137 15 7.5Z" fill="#38BDF8"/>
</svg>
