<svg width="27" height="27" viewBox="0 0 27 27" fill="none" xmlns="http://www.w3.org/2000/svg">
<path d="M21.7167 13.0084V16.7053C21.7167 18.3433 21.7156 19.502 21.6405 20.4073C21.5666 21.2987 21.4265 21.8418 21.205 22.2676C20.774 23.0973 20.0976 23.774 19.2676 24.205C18.8418 24.4265 18.2987 24.5666 17.4073 24.6405C16.502 24.7156 15.3433 24.7167 13.7055 24.7167H10.2945C8.65654 24.7167 7.4979 24.7156 6.59269 24.6405C5.70116 24.5666 5.15823 24.4265 4.73225 24.205C3.90246 23.774 3.22587 23.0973 2.79481 22.2676C2.57353 21.8418 2.43343 21.2987 2.35936 20.4073C2.28422 19.502 2.28327 18.3433 2.28327 16.7053V13.2945C2.28327 11.6565 2.28422 10.4979 2.35936 9.59267C2.43343 8.70114 2.57353 8.1582 2.79481 7.73223C3.22587 6.90243 3.90246 6.22584 4.73225 5.79479C5.15823 5.57351 5.70116 5.4334 6.59269 5.35937C7.4979 5.28419 8.65652 5.28328 10.2945 5.28328H13.9914C14.0244 4.48296 14.1842 3.71535 14.4511 3H10.2437C8.66796 2.99997 7.4145 2.99997 6.40372 3.08391C5.36846 3.16988 4.48592 3.3498 3.67972 3.76858C2.43288 4.41626 1.41629 5.43289 0.768607 6.67973C0.349826 7.48589 0.169905 8.36843 0.0839393 9.4037C4.9334e-07 10.4145 0 11.6679 0 13.2437V16.7561C0 18.3318 4.9334e-07 19.5854 0.0839393 20.5963C0.169905 21.6315 0.349826 22.5139 0.768607 23.3202C1.41629 24.5669 2.43288 25.5835 3.67972 26.2314C4.48592 26.6501 5.36846 26.8299 6.40372 26.9161C7.4145 27 8.6679 27 10.2436 27H13.7562C15.3318 27 16.5854 27 17.5963 26.9161C18.6315 26.8299 19.5139 26.6501 20.3202 26.2314C21.5669 25.5835 22.5835 24.5669 23.2314 23.3202C23.6501 22.5139 23.8299 21.6315 23.9161 20.5963C24 19.5854 24 18.3318 24 16.7564V12.5487C23.2845 12.8157 22.517 12.9754 21.7167 13.0084Z" fill="white"/>
<path d="M15 6C15 2.6863 17.6863 0 21 0C24.3137 0 27 2.6863 27 6C27 9.3137 24.3137 12 21 12C17.6863 12 15 9.3137 15 6Z" fill="#38BDF8"/>
</svg>
